# xmcd
#
# Track frame offsets: 
#        150
#        21916
#        40865
#        60745
#        74894
#        95537
#        112361
#        134400
#        139309
#        156677
#        187598
#        206645
#        222007
#        241370
#
# Disc length: 3538 seconds
#
# Revision: 0
# Processed by: cddbd v1.5.2PL0 Copyright (c) Steve Scherf et al.
# Submitted via: ExactAudioCopy v0.99pb5
#
DISCID=df0dd00e
DTITLE=Sky High - Download
DYEAR=2008
DGENRE=Blues Rock
TTITLE0=Rock U
TTITLE1=Lo-Rider
TTITLE2=Happy Sunny Days
TTITLE3=10:21
TTITLE4=Better Place
TTITLE5=Out Of Time and out Of Mind
TTITLE6=Sucker
TTITLE7=Touched
TTITLE8=People Like Crap
TTITLE9=Stealer
TTITLE10=Burn, Baby Burn!
TTITLE11=Adam and Eve
TTITLE12=fast Live Rider
TTITLE13=When The Blues Takes A Hold Of Me
EXTD=
EXTT0=
EXTT1=
EXTT2=
EXTT3=
EXTT4=
EXTT5=
EXTT6=
EXTT7=
EXTT8=
EXTT9=
EXTT10=
EXTT11=
EXTT12=
EXTT13=
PLAYORDER=
